Coordinates
version=1
nRows=7
nColumns=46
inDegrees=yes

Units are S.I. units (second, meters, Newtons, ...)
Angles are in degrees.

endheader
time	pelvis_tilt	pelvis_list	pelvis_rotation	pelvis_tx	pelvis_ty	pelvis_tz	bb_angle	bb_tx	bb_ty	bb_tz	hip_flexion_r	hip_adduction_r	hip_rotation_r	knee_angle_r	knee_angle_r_beta	ankle_angle_r	subtalar_angle_r	mtp_angle_r	crank_angle_r	hip_flexion_l	hip_adduction_l	hip_rotation_l	knee_angle_l	knee_angle_l_beta	ankle_angle_l	subtalar_angle_l	mtp_angle_l	crank_angle_l	lumbar_extension	lumbar_bending	lumbar_rotation	arm_flex_r	arm_add_r	arm_rot_r	elbow_flex_r	pro_sup_r	wrist_flex_r	wrist_dev_r	arm_flex_l	arm_add_l	arm_rot_l	elbow_flex_l	pro_sup_l	wrist_flex_l	wrist_dev_l
      5.00000000	    -18.73814198	      2.33478994	      9.30886301	      0.14970469	      1.15913816	     -0.25425928	      0.00000000	      0.50000000	      0.00000000	      0.25000000	     50.00526761	    -14.15661412	    -10.17219683	     59.00222965	      1.02978317	     -4.87761204	     -3.11836973	      0.00000000	      0.00000000	     92.04475145	     -2.37847216	     -0.83388982	     98.69489529	      1.72255088	      1.60460756	      6.81631707	      0.00000000	      0.00000000	    -63.79574804	     -6.48425552	     -4.43165347	     89.50362906	    -33.96431604	     36.65992199	     64.16551544	     33.17423020	      0.00000000	      0.00000000	     89.79925195	     -7.40908972	     33.71638541	     68.37745365	     31.28872608	      0.00000000	      0.00000000
      5.00500000	    -18.87729421	      2.19196455	      9.45553486	      0.14911090	      1.15853036	     -0.25440941	      0.00000000	      0.50000000	      0.00000000	      0.25000000	     51.28441579	    -14.33106723	     -9.84318303	     61.42621799	      1.07208975	     -6.13135077	     -3.87037797	      0.00000000	      0.00000000	     91.01525434	     -2.14658649	     -0.71615533	     96.73298043	      1.68830900	      3.62021021	      7.69855108	      0.00000000	      0.00000000	    -63.75895578	     -6.35513033	     -4.13671338	     89.50670527	    -34.41417800	     36.45560420	     64.29140237	     33.22775390	      0.00000000	      0.00000000	     89.80125842	     -7.18456225	     33.70886632	     68.63454412	     31.14260570	      0.00000000	      0.00000000
      5.01000000	    -18.95045725	      1.97019701	      9.54790140	      0.14863772	      1.15778605	     -0.25454495	      0.00000000	      0.50000000	      0.00000000	      0.25000000	     52.53956051	    -14.38137977	     -9.50056217	     63.85694793	      1.11451399	     -7.39450634	     -4.56518832	      0.00000000	      0.00000000	     89.83613110	     -1.99039713	     -0.56165877	     94.69476370	      1.65273541	      5.75450306	      8.37397280	      0.00000000	      0.00000000	    -63.73277242	     -6.23698391	     -3.72595697	     89.49536807	    -34.99217034	     36.25637202	     64.52115059	     33.30116307	      0.00000000	      0.00000000	     89.80296109	     -6.95519199	     33.62309440	     68.89467340	     31.05490267	      0.00000000	      0.00000000
      5.01500000	    -19.00062051	      1.69169440	      9.51299159	      0.14829419	      1.15684097	     -0.25438570	      0.00000000	      0.50000000	      0.00000000	      0.25000000	     53.83734381	    -14.22464286	     -9.06340032	     66.26825259	      1.15659920	     -8.89973677	     -5.52286800	      0.00000000	      0.00000000	     88.57096377	     -2.02633994	     -0.41702491	     92.58866877	      1.61597712	      7.77830700	      9.25534687	      0.00000000	      0.00000000	    -63.90210038	     -6.27468870	     -2.09559699	     89.44134771	    -38.62928432	     36.79551184	     67.38091813	     34.21852334	      0.00000000	      0.00000000	     89.80746104	     -5.07166047	     33.39985112	     68.85694924	     29.83039815	      0.00000000	      0.00000000
      5.02000000	    -19.01051448	      1.48172651	      9.54228161	      0.14797836	      1.15580113	     -0.25450300	      0.00000000	      0.50000000	      0.00000000	      0.25000000	     55.12624261	    -14.24643094	     -8.68265966	     68.73269951	      1.19961191	    -10.07679934	     -5.87674590	      0.00000000	      0.00000000	     87.14766253	     -1.92221911	     -0.40891162	     90.36600386	      1.57718430	      9.73851892	      9.42743181	      0.00000000	      0.00000000	    -63.85376562	     -6.14400749	     -1.65266979	     89.45039596	    -38.98044855	     36.61229707	     67.45382058	     34.26920843	      0.00000000	      0.00000000	     89.80614502	     -4.86455059	     33.52787228	     68.93518016	     29.75457741	      0.00000000	      0.00000000
      5.02500000	    -18.94139811	      1.33755134	      9.50943799	      0.14780321	      1.15490926	     -0.25438650	      0.00000000	      0.50000000	      0.00000000	      0.25000000	     56.38085640	    -14.18773449	     -8.16171767	     71.18095780	      1.24234208	    -11.37811297	     -6.38355037	      0.00000000	      0.00000000	     85.54977736	     -1.90313291	     -0.52734704	     88.01786285	      1.53620151	     11.40005807	      9.58407526	      0.00000000	      0.00000000	    -63.92001852	     -6.10060105	     -1.03158675	     89.43356366	    -39.64843935	     36.45288222	     67.81465523	     34.38386594	      0.00000000	      0.00000000	     89.80638746	     -4.46039186	     33.73972698	     68.91230121	     29.62015778	      0.00000000	      0.00000000
      5.03000000	    -18.84584172	      0.96002753	      9.36742629	      0.14768741	      1.15358001	     -0.25469150	      0.00000000	      0.50000000	      0.00000000	      0.25000000	     57.61985366	    -13.93843798	     -7.84590530	     73.55178882	      1.28372089	    -12.73541365	     -6.88941549	      0.00000000	      0.00000000	     84.01399518	     -1.95431290	     -0.43487950	     85.74873481	      1.49659775	     12.88687410	      9.32567846	      0.00000000	      0.00000000	    -64.08114725	     -6.12022517	      1.00569942	     89.36208809	    -43.77551226	     37.08846371	     70.75779098	     35.34448101	      0.00000000	      0.00000000	     89.81021851	     -2.07889416	     33.58025143	     68.17576273	     28.44807389	      0.00000000	      0.00000000
